<mxfile host="app.diagrams.net" modified="2022-05-20T12:00:50.141Z" agent="5.0 (Windows)" etag="TNBDEWlmlMY2FP_6nXdX" version="18.0.8" type="github">
  <diagram id="SS_MKoYorXcX6fGoDfd3" name="Page-1">
    <mxGraphModel dx="3472" dy="1912" grid="1" gridSize="10" guides="1" tooltips="1" connect="1" arrows="1" fold="1" page="1" pageScale="1" pageWidth="900" pageHeight="1600" math="0" shadow="0">
      <root>
        <mxCell id="0" />
        <mxCell id="1" parent="0" />
        <mxCell id="Dfkd_L_tZ3rU1azkT_8S-6" value="" style="group" vertex="1" connectable="0" parent="1">
          <mxGeometry x="120" y="55" width="660" height="1490" as="geometry" />
        </mxCell>
        <mxCell id="rRTHV0CKFzpjJKBDu-N1-104" value="" style="group;" parent="Dfkd_L_tZ3rU1azkT_8S-6" vertex="1" connectable="0">
          <mxGeometry x="140" width="520" height="1490" as="geometry" />
        </mxCell>
        <mxCell id="rRTHV0CKFzpjJKBDu-N1-94" value="" style="group" parent="rRTHV0CKFzpjJKBDu-N1-104" vertex="1" connectable="0">
          <mxGeometry width="520" height="1360" as="geometry" />
        </mxCell>
        <mxCell id="rRTHV0CKFzpjJKBDu-N1-1" value="Start" style="ellipse;whiteSpace=wrap;html=1;" parent="rRTHV0CKFzpjJKBDu-N1-94" vertex="1">
          <mxGeometry x="140" y="25" width="110" height="50" as="geometry" />
        </mxCell>
        <mxCell id="rRTHV0CKFzpjJKBDu-N1-2" value="&lt;div&gt;Both player gets 3 throw attempts each.&lt;/div&gt;&lt;div&gt;Player 1 Baskets = 0&lt;/div&gt;&lt;div&gt;Player 2 Baskets = 0&lt;/div&gt;" style="rounded=0;whiteSpace=wrap;html=1;" parent="rRTHV0CKFzpjJKBDu-N1-94" vertex="1">
          <mxGeometry x="121.25" y="105" width="147.5" height="70" as="geometry" />
        </mxCell>
        <mxCell id="rRTHV0CKFzpjJKBDu-N1-3" value="Player 1 throws" style="rounded=0;whiteSpace=wrap;html=1;" parent="rRTHV0CKFzpjJKBDu-N1-94" vertex="1">
          <mxGeometry x="135" y="205" width="120" height="60" as="geometry" />
        </mxCell>
        <mxCell id="rRTHV0CKFzpjJKBDu-N1-66" style="edgeStyle=none;rounded=0;orthogonalLoop=1;jettySize=auto;html=1;entryX=0.5;entryY=0;entryDx=0;entryDy=0;elbow=vertical;" parent="rRTHV0CKFzpjJKBDu-N1-94" source="rRTHV0CKFzpjJKBDu-N1-2" target="rRTHV0CKFzpjJKBDu-N1-3" edge="1">
          <mxGeometry relative="1" as="geometry" />
        </mxCell>
        <mxCell id="rRTHV0CKFzpjJKBDu-N1-4" value="Does the ball gets in the hoop?" style="rhombus;whiteSpace=wrap;html=1;" parent="rRTHV0CKFzpjJKBDu-N1-94" vertex="1">
          <mxGeometry x="83.75" y="305" width="222.5" height="80" as="geometry" />
        </mxCell>
        <mxCell id="rRTHV0CKFzpjJKBDu-N1-62" style="edgeStyle=none;rounded=0;orthogonalLoop=1;jettySize=auto;html=1;entryX=0.5;entryY=0;entryDx=0;entryDy=0;elbow=vertical;" parent="rRTHV0CKFzpjJKBDu-N1-94" source="rRTHV0CKFzpjJKBDu-N1-3" target="rRTHV0CKFzpjJKBDu-N1-4" edge="1">
          <mxGeometry relative="1" as="geometry" />
        </mxCell>
        <mxCell id="rRTHV0CKFzpjJKBDu-N1-42" value="Player 1 Baskets + 1" style="rounded=0;whiteSpace=wrap;html=1;" parent="rRTHV0CKFzpjJKBDu-N1-94" vertex="1">
          <mxGeometry x="135" y="425" width="120" height="60" as="geometry" />
        </mxCell>
        <mxCell id="rRTHV0CKFzpjJKBDu-N1-55" value="" style="edgeStyle=none;rounded=0;orthogonalLoop=1;jettySize=auto;html=1;elbow=vertical;" parent="rRTHV0CKFzpjJKBDu-N1-94" source="rRTHV0CKFzpjJKBDu-N1-4" target="rRTHV0CKFzpjJKBDu-N1-42" edge="1">
          <mxGeometry relative="1" as="geometry" />
        </mxCell>
        <mxCell id="rRTHV0CKFzpjJKBDu-N1-63" style="edgeStyle=none;rounded=0;orthogonalLoop=1;jettySize=auto;html=1;entryX=0;entryY=0.5;entryDx=0;entryDy=0;elbow=vertical;" parent="rRTHV0CKFzpjJKBDu-N1-94" source="rRTHV0CKFzpjJKBDu-N1-52" target="rRTHV0CKFzpjJKBDu-N1-3" edge="1">
          <mxGeometry relative="1" as="geometry">
            <Array as="points">
              <mxPoint y="565" />
              <mxPoint y="235" />
            </Array>
          </mxGeometry>
        </mxCell>
        <mxCell id="rRTHV0CKFzpjJKBDu-N1-52" value="is the number of attempts 3?" style="rhombus;whiteSpace=wrap;html=1;" parent="rRTHV0CKFzpjJKBDu-N1-94" vertex="1">
          <mxGeometry x="83.75" y="525" width="222.5" height="80" as="geometry" />
        </mxCell>
        <mxCell id="rRTHV0CKFzpjJKBDu-N1-57" style="edgeStyle=none;rounded=0;orthogonalLoop=1;jettySize=auto;html=1;entryX=1;entryY=0.5;entryDx=0;entryDy=0;elbow=vertical;" parent="rRTHV0CKFzpjJKBDu-N1-94" source="rRTHV0CKFzpjJKBDu-N1-4" target="rRTHV0CKFzpjJKBDu-N1-52" edge="1">
          <mxGeometry relative="1" as="geometry">
            <Array as="points">
              <mxPoint x="390" y="345" />
              <mxPoint x="390" y="565" />
            </Array>
          </mxGeometry>
        </mxCell>
        <mxCell id="rRTHV0CKFzpjJKBDu-N1-59" style="edgeStyle=none;rounded=0;orthogonalLoop=1;jettySize=auto;html=1;entryX=0.5;entryY=0;entryDx=0;entryDy=0;elbow=vertical;" parent="rRTHV0CKFzpjJKBDu-N1-94" source="rRTHV0CKFzpjJKBDu-N1-42" target="rRTHV0CKFzpjJKBDu-N1-52" edge="1">
          <mxGeometry relative="1" as="geometry" />
        </mxCell>
        <mxCell id="rRTHV0CKFzpjJKBDu-N1-56" value="Yes" style="text;html=1;align=center;verticalAlign=middle;resizable=0;points=[];autosize=1;strokeColor=none;fillColor=none;" parent="rRTHV0CKFzpjJKBDu-N1-94" vertex="1">
          <mxGeometry x="205" y="395" width="40" height="20" as="geometry" />
        </mxCell>
        <mxCell id="rRTHV0CKFzpjJKBDu-N1-58" value="No" style="text;html=1;align=center;verticalAlign=middle;resizable=0;points=[];autosize=1;strokeColor=none;fillColor=none;" parent="rRTHV0CKFzpjJKBDu-N1-94" vertex="1">
          <mxGeometry x="330" y="315" width="30" height="20" as="geometry" />
        </mxCell>
        <mxCell id="rRTHV0CKFzpjJKBDu-N1-61" value="Yes" style="text;html=1;align=center;verticalAlign=middle;resizable=0;points=[];autosize=1;strokeColor=none;fillColor=none;" parent="rRTHV0CKFzpjJKBDu-N1-94" vertex="1">
          <mxGeometry x="200" y="615" width="40" height="20" as="geometry" />
        </mxCell>
        <mxCell id="rRTHV0CKFzpjJKBDu-N1-67" value="No" style="text;html=1;align=center;verticalAlign=middle;resizable=0;points=[];autosize=1;strokeColor=none;fillColor=none;" parent="rRTHV0CKFzpjJKBDu-N1-94" vertex="1">
          <mxGeometry x="35" y="535" width="30" height="20" as="geometry" />
        </mxCell>
        <mxCell id="rRTHV0CKFzpjJKBDu-N1-69" value="Player 2 throws" style="rounded=0;whiteSpace=wrap;html=1;" parent="rRTHV0CKFzpjJKBDu-N1-94" vertex="1">
          <mxGeometry x="135" y="645" width="120" height="60" as="geometry" />
        </mxCell>
        <mxCell id="rRTHV0CKFzpjJKBDu-N1-82" style="edgeStyle=none;rounded=0;orthogonalLoop=1;jettySize=auto;html=1;entryX=0.5;entryY=0;entryDx=0;entryDy=0;elbow=vertical;" parent="rRTHV0CKFzpjJKBDu-N1-94" source="rRTHV0CKFzpjJKBDu-N1-52" target="rRTHV0CKFzpjJKBDu-N1-69" edge="1">
          <mxGeometry relative="1" as="geometry" />
        </mxCell>
        <mxCell id="rRTHV0CKFzpjJKBDu-N1-72" value="Does the ball gets in the hoop?" style="rhombus;whiteSpace=wrap;html=1;" parent="rRTHV0CKFzpjJKBDu-N1-94" vertex="1">
          <mxGeometry x="83.75" y="745" width="222.5" height="80" as="geometry" />
        </mxCell>
        <mxCell id="rRTHV0CKFzpjJKBDu-N1-68" style="edgeStyle=none;rounded=0;orthogonalLoop=1;jettySize=auto;html=1;entryX=0.5;entryY=0;entryDx=0;entryDy=0;elbow=vertical;" parent="rRTHV0CKFzpjJKBDu-N1-94" source="rRTHV0CKFzpjJKBDu-N1-69" target="rRTHV0CKFzpjJKBDu-N1-72" edge="1">
          <mxGeometry relative="1" as="geometry" />
        </mxCell>
        <mxCell id="rRTHV0CKFzpjJKBDu-N1-74" value="Player 2 Baskets + 1" style="rounded=0;whiteSpace=wrap;html=1;" parent="rRTHV0CKFzpjJKBDu-N1-94" vertex="1">
          <mxGeometry x="127.5" y="865" width="135" height="60" as="geometry" />
        </mxCell>
        <mxCell id="rRTHV0CKFzpjJKBDu-N1-70" value="" style="edgeStyle=none;rounded=0;orthogonalLoop=1;jettySize=auto;html=1;elbow=vertical;" parent="rRTHV0CKFzpjJKBDu-N1-94" source="rRTHV0CKFzpjJKBDu-N1-72" target="rRTHV0CKFzpjJKBDu-N1-74" edge="1">
          <mxGeometry relative="1" as="geometry" />
        </mxCell>
        <mxCell id="rRTHV0CKFzpjJKBDu-N1-75" style="edgeStyle=none;rounded=0;orthogonalLoop=1;jettySize=auto;html=1;entryX=0.5;entryY=0;entryDx=0;entryDy=0;elbow=vertical;" parent="rRTHV0CKFzpjJKBDu-N1-94" source="rRTHV0CKFzpjJKBDu-N1-77" edge="1">
          <mxGeometry relative="1" as="geometry">
            <mxPoint x="195" y="1085" as="targetPoint" />
          </mxGeometry>
        </mxCell>
        <mxCell id="rRTHV0CKFzpjJKBDu-N1-76" style="edgeStyle=none;rounded=0;orthogonalLoop=1;jettySize=auto;html=1;entryX=0;entryY=0.5;entryDx=0;entryDy=0;elbow=vertical;" parent="rRTHV0CKFzpjJKBDu-N1-94" source="rRTHV0CKFzpjJKBDu-N1-77" target="rRTHV0CKFzpjJKBDu-N1-69" edge="1">
          <mxGeometry relative="1" as="geometry">
            <Array as="points">
              <mxPoint y="1005" />
              <mxPoint y="675" />
            </Array>
          </mxGeometry>
        </mxCell>
        <mxCell id="rRTHV0CKFzpjJKBDu-N1-77" value="is the number of attempts 3?" style="rhombus;whiteSpace=wrap;html=1;" parent="rRTHV0CKFzpjJKBDu-N1-94" vertex="1">
          <mxGeometry x="83.75" y="965" width="222.5" height="80" as="geometry" />
        </mxCell>
        <mxCell id="rRTHV0CKFzpjJKBDu-N1-71" style="edgeStyle=none;rounded=0;orthogonalLoop=1;jettySize=auto;html=1;entryX=1;entryY=0.5;entryDx=0;entryDy=0;elbow=vertical;" parent="rRTHV0CKFzpjJKBDu-N1-94" source="rRTHV0CKFzpjJKBDu-N1-72" target="rRTHV0CKFzpjJKBDu-N1-77" edge="1">
          <mxGeometry relative="1" as="geometry">
            <Array as="points">
              <mxPoint x="390" y="785" />
              <mxPoint x="390" y="1005" />
            </Array>
          </mxGeometry>
        </mxCell>
        <mxCell id="rRTHV0CKFzpjJKBDu-N1-73" style="edgeStyle=none;rounded=0;orthogonalLoop=1;jettySize=auto;html=1;entryX=0.5;entryY=0;entryDx=0;entryDy=0;elbow=vertical;" parent="rRTHV0CKFzpjJKBDu-N1-94" source="rRTHV0CKFzpjJKBDu-N1-74" target="rRTHV0CKFzpjJKBDu-N1-77" edge="1">
          <mxGeometry relative="1" as="geometry" />
        </mxCell>
        <mxCell id="rRTHV0CKFzpjJKBDu-N1-78" value="Yes" style="text;html=1;align=center;verticalAlign=middle;resizable=0;points=[];autosize=1;strokeColor=none;fillColor=none;" parent="rRTHV0CKFzpjJKBDu-N1-94" vertex="1">
          <mxGeometry x="205" y="835" width="40" height="20" as="geometry" />
        </mxCell>
        <mxCell id="rRTHV0CKFzpjJKBDu-N1-79" value="No" style="text;html=1;align=center;verticalAlign=middle;resizable=0;points=[];autosize=1;strokeColor=none;fillColor=none;" parent="rRTHV0CKFzpjJKBDu-N1-94" vertex="1">
          <mxGeometry x="330" y="755" width="30" height="20" as="geometry" />
        </mxCell>
        <mxCell id="rRTHV0CKFzpjJKBDu-N1-80" value="Yes" style="text;html=1;align=center;verticalAlign=middle;resizable=0;points=[];autosize=1;strokeColor=none;fillColor=none;" parent="rRTHV0CKFzpjJKBDu-N1-94" vertex="1">
          <mxGeometry x="200" y="1055" width="40" height="20" as="geometry" />
        </mxCell>
        <mxCell id="rRTHV0CKFzpjJKBDu-N1-81" value="No" style="text;html=1;align=center;verticalAlign=middle;resizable=0;points=[];autosize=1;strokeColor=none;fillColor=none;" parent="rRTHV0CKFzpjJKBDu-N1-94" vertex="1">
          <mxGeometry x="35" y="975" width="30" height="20" as="geometry" />
        </mxCell>
        <mxCell id="rRTHV0CKFzpjJKBDu-N1-91" style="edgeStyle=none;rounded=0;orthogonalLoop=1;jettySize=auto;html=1;entryX=1;entryY=0.5;entryDx=0;entryDy=0;elbow=vertical;" parent="rRTHV0CKFzpjJKBDu-N1-94" source="rRTHV0CKFzpjJKBDu-N1-86" target="rRTHV0CKFzpjJKBDu-N1-2" edge="1">
          <mxGeometry relative="1" as="geometry">
            <Array as="points">
              <mxPoint x="520" y="1135" />
              <mxPoint x="520" y="140" />
            </Array>
          </mxGeometry>
        </mxCell>
        <mxCell id="rRTHV0CKFzpjJKBDu-N1-101" style="edgeStyle=none;rounded=0;orthogonalLoop=1;jettySize=auto;html=1;entryX=0.5;entryY=0;entryDx=0;entryDy=0;elbow=vertical;" parent="rRTHV0CKFzpjJKBDu-N1-94" source="rRTHV0CKFzpjJKBDu-N1-86" target="rRTHV0CKFzpjJKBDu-N1-96" edge="1">
          <mxGeometry relative="1" as="geometry" />
        </mxCell>
        <mxCell id="rRTHV0CKFzpjJKBDu-N1-86" value="are Player 1 Baskets = Player 2 Baskets?" style="rhombus;whiteSpace=wrap;html=1;" parent="rRTHV0CKFzpjJKBDu-N1-94" vertex="1">
          <mxGeometry x="58.75" y="1085" width="272.5" height="100" as="geometry" />
        </mxCell>
        <mxCell id="rRTHV0CKFzpjJKBDu-N1-90" value="No" style="text;html=1;align=center;verticalAlign=middle;resizable=0;points=[];autosize=1;strokeColor=none;fillColor=none;" parent="rRTHV0CKFzpjJKBDu-N1-94" vertex="1">
          <mxGeometry x="200" y="1195" width="30" height="20" as="geometry" />
        </mxCell>
        <mxCell id="rRTHV0CKFzpjJKBDu-N1-92" value="Yes" style="text;html=1;align=center;verticalAlign=middle;resizable=0;points=[];autosize=1;strokeColor=none;fillColor=none;" parent="rRTHV0CKFzpjJKBDu-N1-94" vertex="1">
          <mxGeometry x="340" y="1105" width="40" height="20" as="geometry" />
        </mxCell>
        <mxCell id="rRTHV0CKFzpjJKBDu-N1-100" style="edgeStyle=none;rounded=0;orthogonalLoop=1;jettySize=auto;html=1;entryX=0.5;entryY=0;entryDx=0;entryDy=0;elbow=vertical;" parent="rRTHV0CKFzpjJKBDu-N1-94" source="rRTHV0CKFzpjJKBDu-N1-96" target="rRTHV0CKFzpjJKBDu-N1-99" edge="1">
          <mxGeometry relative="1" as="geometry">
            <Array as="points">
              <mxPoint x="420" y="1275" />
            </Array>
          </mxGeometry>
        </mxCell>
        <mxCell id="rRTHV0CKFzpjJKBDu-N1-96" value="are Player 1 Baskets &amp;gt; Player 2 Baskets?" style="rhombus;whiteSpace=wrap;html=1;" parent="rRTHV0CKFzpjJKBDu-N1-94" vertex="1">
          <mxGeometry x="58.75" y="1225" width="272.5" height="100" as="geometry" />
        </mxCell>
        <mxCell id="rRTHV0CKFzpjJKBDu-N1-99" value="Player 2 Wins!" style="rounded=0;whiteSpace=wrap;html=1;" parent="rRTHV0CKFzpjJKBDu-N1-94" vertex="1">
          <mxGeometry x="360" y="1315" width="120" height="60" as="geometry" />
        </mxCell>
        <mxCell id="rRTHV0CKFzpjJKBDu-N1-88" value="End" style="ellipse;whiteSpace=wrap;html=1;" parent="rRTHV0CKFzpjJKBDu-N1-104" vertex="1">
          <mxGeometry x="140" y="1455" width="110" height="50" as="geometry" />
        </mxCell>
        <mxCell id="rRTHV0CKFzpjJKBDu-N1-102" style="edgeStyle=none;rounded=0;orthogonalLoop=1;jettySize=auto;html=1;entryX=0.5;entryY=0;entryDx=0;entryDy=0;elbow=vertical;" parent="rRTHV0CKFzpjJKBDu-N1-104" source="rRTHV0CKFzpjJKBDu-N1-97" target="rRTHV0CKFzpjJKBDu-N1-88" edge="1">
          <mxGeometry relative="1" as="geometry" />
        </mxCell>
        <mxCell id="rRTHV0CKFzpjJKBDu-N1-97" value="Player 1 Wins!" style="rounded=0;whiteSpace=wrap;html=1;" parent="rRTHV0CKFzpjJKBDu-N1-104" vertex="1">
          <mxGeometry x="135" y="1365" width="120" height="60" as="geometry" />
        </mxCell>
        <mxCell id="rRTHV0CKFzpjJKBDu-N1-98" style="edgeStyle=none;rounded=0;orthogonalLoop=1;jettySize=auto;html=1;entryX=0.5;entryY=0;entryDx=0;entryDy=0;elbow=vertical;" parent="rRTHV0CKFzpjJKBDu-N1-104" source="rRTHV0CKFzpjJKBDu-N1-96" target="rRTHV0CKFzpjJKBDu-N1-97" edge="1">
          <mxGeometry relative="1" as="geometry" />
        </mxCell>
        <mxCell id="rRTHV0CKFzpjJKBDu-N1-103" style="edgeStyle=none;rounded=0;orthogonalLoop=1;jettySize=auto;html=1;entryX=1;entryY=0.5;entryDx=0;entryDy=0;elbow=vertical;" parent="rRTHV0CKFzpjJKBDu-N1-104" source="rRTHV0CKFzpjJKBDu-N1-99" target="rRTHV0CKFzpjJKBDu-N1-88" edge="1">
          <mxGeometry relative="1" as="geometry">
            <Array as="points">
              <mxPoint x="420" y="1480" />
            </Array>
          </mxGeometry>
        </mxCell>
        <mxCell id="rRTHV0CKFzpjJKBDu-N1-105" value="Yes" style="text;html=1;align=center;verticalAlign=middle;resizable=0;points=[];autosize=1;strokeColor=none;fillColor=none;" parent="Dfkd_L_tZ3rU1azkT_8S-6" vertex="1">
          <mxGeometry x="340" y="1330" width="40" height="20" as="geometry" />
        </mxCell>
        <mxCell id="rRTHV0CKFzpjJKBDu-N1-106" value="No" style="text;html=1;align=center;verticalAlign=middle;resizable=0;points=[];autosize=1;strokeColor=none;fillColor=none;" parent="Dfkd_L_tZ3rU1azkT_8S-6" vertex="1">
          <mxGeometry x="495" y="1250" width="30" height="20" as="geometry" />
        </mxCell>
        <mxCell id="Dfkd_L_tZ3rU1azkT_8S-5" style="edgeStyle=orthogonalEdgeStyle;rounded=0;orthogonalLoop=1;jettySize=auto;html=1;fontSize=15;" edge="1" parent="Dfkd_L_tZ3rU1azkT_8S-6" source="rRTHV0CKFzpjJKBDu-N1-1">
          <mxGeometry relative="1" as="geometry">
            <mxPoint x="335" y="105" as="targetPoint" />
          </mxGeometry>
        </mxCell>
        <mxCell id="Dfkd_L_tZ3rU1azkT_8S-1" value="&lt;div style=&quot;font-size: 15px;&quot;&gt;Workshop - 1 Logic - 2 (Flowchart)&lt;br style=&quot;font-size: 15px;&quot;&gt;Full Name : Jeel Satishkumar Patel&lt;br style=&quot;font-size: 15px;&quot;&gt;Student ID : 167984210&lt;br style=&quot;font-size: 15px;&quot;&gt;Email: jpatel363@myseneca.ca&lt;br style=&quot;font-size: 15px;&quot;&gt;Section: NEE&lt;br style=&quot;font-size: 15px;&quot;&gt;&lt;br style=&quot;font-size: 15px;&quot;&gt;&lt;/div&gt;" style="text;html=1;strokeColor=none;fillColor=none;align=left;verticalAlign=middle;whiteSpace=wrap;rounded=0;fontSize=15;" vertex="1" parent="Dfkd_L_tZ3rU1azkT_8S-6">
          <mxGeometry width="240" height="105" as="geometry" />
        </mxCell>
      </root>
    </mxGraphModel>
  </diagram>
</mxfile>
